{"extensionsUsed" : ["KHR_materials_unlit"], "accessors" : [{"bufferView" : 0, "byteOffset" : 0, "componentType" : 5123, "count" : 30, "type" : "SCALAR", "max" : [29], "min" : [0]}, {"bufferView" : 1, "byteOffset" : 0, "componentType" : 5126, "count" : 30, "type" : "VEC3", "max" : [0.5, 0.10000000149011612, 0.5], "min" : [-0.5, 0, -0.5], "name" : "POSITION"}, {"bufferView" : 1, "byteOffset" : 12, "componentType" : 5126, "count" : 30, "type" : "VEC3", "max" : [1.0000044107437134, 0, 1.0000044107437134], "min" : [-1.0000044107437134, -1.0000044107437134, -1.0000044107437134], "name" : "NORMAL"}, {"bufferView" : 1, "byteOffset" : 24, "componentType" : 5126, "count" : 30, "type" : "VEC2", "max" : [19.685039520263672, 18.685039520263672], "min" : [-19.685039520263672, -20.685039520263672], "name" : "TEXCOORD_0"}, {"bufferView" : 0, "byteOffset" : 60, "componentType" : 5123, "count" : 30, "type" : "SCALAR", "max" : [29], "min" : [0]}, {"bufferView" : 2, "byteOffset" : 0, "componentType" : 5126, "count" : 30, "type" : "VEC3", "max" : [0.5, 0.20000000298023224, 0.5], "min" : [-0.5, 0.10000000149011612, -0.5], "name" : "POSITION"}, {"bufferView" : 2, "byteOffset" : 12, "componentType" : 5126, "count" : 30, "type" : "VEC3", "max" : [1.0000044107437134, 1.0000044107437134, 1.0000044107437134], "min" : [-1.0000044107437134, 0, -1.0000044107437134], "name" : "NORMAL"}, {"bufferView" : 2, "byteOffset" : 24, "componentType" : 5126, "count" : 30, "type" : "VEC2", "max" : [19.685039520263672, 18.685039520263672], "min" : [-19.685039520263672, -20.685039520263672], "name" : "TEXCOORD_0"}], "asset" : {"generator" : "Aspose.3D 23.9.0", "version" : "2.0"}, "buffers" : [{"uri" : "data:application/octet-stream;base64,", "byteLength" : 2052}], "bufferViews" : [{"buffer" : 0, "byteOffset" : 0, "byteLength" : 120, "target" : 34963}, {"buffer" : 0, "byteOffset" : 124, "byteLength" : 960, "byteStride" : 32, "target" : 34962}, {"buffer" : 0, "byteOffset" : 1088, "byteLength" : 960, "byteStride" : 32, "target" : 34962}], "materials" : [{"name" : "dirt", "pbrMetallicRoughness" : {"baseColorFactor" : [0.9764706, 0.7137255, 0.4509804, 1], "metallicFactor" : 1, "roughnessFactor" : 1}, "emissiveFactor" : [0, 0, 0], "alphaMode" : "OPAQUE", "doubleSided" : false}, {"name" : "foliage", "pbrMetallicRoughness" : {"baseColorFactor" : [0.266666681, 0.709803939, 0.5529412, 1], "metallicFactor" : 1, "roughnessFactor" : 1}, "emissiveFactor" : [0, 0, 0], "alphaMode" : "OPAQUE", "doubleSided" : false}], "meshes" : [{"primitives" : [{"attributes" : {"POSITION" : 1, "NORMAL" : 2, "TEXCOORD_0" : 3}, "indices" : 0, "material" : 0, "mode" : 4}, {"attributes" : {"POSITION" : 5, "NORMAL" : 6, "TEXCOORD_0" : 7}, "indices" : 4, "material" : 1, "mode" : 4}]}], "nodes" : [{"mesh" : 0, "name" : "tile"}], "scene" : 0, "scenes" : [{"nodes" : [0]}]}